<svg width="39" height="39" viewBox="0 0 39 39" fill="none" xmlns="http://www.w3.org/2000/svg">
<circle cx="19.5" cy="19.5" r="19.5" fill="#E0F4E7"/>
<path fill-rule="evenodd" clip-rule="evenodd" d="M18.2568 23.7541C15.0774 23.7541 12.5 21.0389 12.5 17.6895C12.5 14.3402 15.0774 11.625 18.2568 11.625C21.4362 11.625 24.0136 14.3402 24.0136 17.6895C24.0136 19.091 23.5623 20.3814 22.8046 21.4083L26.6812 25.4922L25.6636 26.5643L21.7869 22.4804C20.8121 23.2787 19.5871 23.7541 18.2568 23.7541ZM22.5744 17.6895C22.5744 20.2015 20.6413 22.2379 18.2568 22.2379C15.8723 22.2379 13.9392 20.2015 13.9392 17.6895C13.9392 15.1775 15.8723 13.1411 18.2568 13.1411C20.6413 13.1411 22.5744 15.1775 22.5744 17.6895Z" fill="#7EC67F"/>
</svg>
